<svg xmlns="http://www.w3.org/2000/svg" viewBox="0 0 24 24" fill="#4CAF50" width="24" height="24">
  <path d="M9 21c0 .55.45 1 1 1h4c.55 0 1-.45 1-1v-1H9v1zm3-19C8.14 2 5 5.14 5 9c0 2.38 1.19 4.47 3 5.74V17c0 .55.45 1 1 1h6c.55 0 1-.45 1-1v-2.26c1.81-1.27 3-3.36 3-5.74 0-3.86-3.14-7-7-7z" fill="#4CAF50" opacity="0.1"/>
  <path d="M12 2C8.14 2 5 5.14 5 9c0 2.38 1.19 4.47 3 5.74V17c0 .55.45 1 1 1h6c.55 0 1-.45 1-1v-2.26c1.81-1.27 3-3.36 3-5.74 0-3.86-3.14-7-7-7zm2 14h-4v-1h4v1zm1.26-3.74l-.26.19V14h-6v-1.55l-.26-.19C7.47 11.34 6.5 9.77 6.5 9c0-3.04 2.46-5.5 5.5-5.5s5.5 2.46 5.5 5.5c0 1.77-.97 3.34-2.24 4.26z" fill="#4CAF50"/>
</svg>